<?xml version="1.0" encoding="utf-8"?>
<svg width="378px" height="284px" viewBox="0 0 378 284" version="1.1" xmlns:xlink="http://www.w3.org/1999/xlink" xmlns="http://www.w3.org/2000/svg">
  <g id="Group">
    <path d="M22.999 0L355.001 0Q355.566 0 356.13 0.0277033Q356.693 0.0554066 357.255 0.110746Q357.817 0.166086 358.376 0.248929Q358.934 0.331772 359.488 0.441919Q360.042 0.552066 360.589 0.689251Q361.137 0.826436 361.677 0.990329Q362.218 1.15422 362.749 1.34443Q363.281 1.53463 363.802 1.75069Q364.324 1.96676 364.834 2.20815Q365.345 2.44954 365.843 2.71569Q366.341 2.98184 366.825 3.2721Q367.309 3.56236 367.779 3.87603Q368.248 4.1897 368.701 4.52603Q369.155 4.86236 369.591 5.22053Q370.028 5.57871 370.446 5.95787Q370.865 6.33702 371.264 6.73625Q371.663 7.13548 372.042 7.55381Q372.421 7.97215 372.779 8.40859Q373.138 8.84503 373.474 9.29851Q373.81 9.752 374.124 10.2214Q374.438 10.6909 374.728 11.1751Q375.018 11.6594 375.284 12.1573Q375.55 12.6553 375.792 13.1657Q376.033 13.676 376.249 14.1977Q376.465 14.7193 376.656 15.2509Q376.846 15.7825 377.01 16.3227Q377.174 16.863 377.311 17.4107Q377.448 17.9584 377.558 18.5121Q377.668 19.0659 377.751 19.6243Q377.834 20.1828 377.889 20.7447Q377.945 21.3066 377.972 21.8705Q378 22.4344 378 22.999L378 23.001Q378 23.5656 377.972 24.1295Q377.945 24.6934 377.889 25.2553Q377.834 25.8172 377.751 26.3757Q377.668 26.9341 377.558 27.4879Q377.448 28.0416 377.311 28.5893Q377.174 29.137 377.01 29.6773Q376.846 30.2175 376.656 30.7491Q376.465 31.2807 376.249 31.8023Q376.033 32.3239 375.792 32.8343Q375.55 33.3447 375.284 33.8427Q375.018 34.3406 374.728 34.8248Q374.438 35.3091 374.124 35.7786Q373.81 36.248 373.474 36.7015Q373.138 37.155 372.78 37.5914Q372.421 38.0278 372.042 38.4462Q371.663 38.8645 371.264 39.2637Q370.865 39.663 370.446 40.0421Q370.028 40.4213 369.591 40.7795Q369.155 41.1376 368.701 41.474Q368.248 41.8103 367.779 42.124Q367.309 42.4376 366.825 42.7279Q366.341 43.0182 365.843 43.2843Q365.345 43.5504 364.834 43.7918Q364.324 44.0332 363.802 44.2493Q363.281 44.4654 362.749 44.6556Q362.218 44.8458 361.677 45.0097Q361.137 45.1736 360.589 45.3107Q360.042 45.4479 359.488 45.5581Q358.934 45.6682 358.376 45.7511Q357.817 45.8339 357.255 45.8893Q356.693 45.9446 356.13 45.9723Q355.566 46 355.001 46L22.999 46Q22.4344 46 21.8705 45.9723Q21.3066 45.9446 20.7447 45.8893Q20.1828 45.8339 19.6243 45.7511Q19.0659 45.6682 18.5121 45.5581Q17.9584 45.4479 17.4107 45.3107Q16.863 45.1736 16.3227 45.0097Q15.7825 44.8458 15.2509 44.6556Q14.7193 44.4654 14.1977 44.2493Q13.676 44.0332 13.1657 43.7918Q12.6553 43.5504 12.1573 43.2843Q11.6594 43.0182 11.1751 42.7279Q10.6909 42.4376 10.2214 42.124Q9.752 41.8103 9.29851 41.474Q8.84503 41.1376 8.40859 40.7795Q7.97215 40.4213 7.55381 40.0421Q7.13548 39.663 6.73625 39.2637Q6.33702 38.8645 5.95787 38.4462Q5.57871 38.0278 5.22053 37.5914Q4.86236 37.155 4.52603 36.7015Q4.1897 36.248 3.87603 35.7786Q3.56236 35.3091 3.2721 34.8248Q2.98184 34.3406 2.71569 33.8427Q2.44954 33.3447 2.20815 32.8343Q1.96676 32.3239 1.75069 31.8023Q1.53463 31.2807 1.34443 30.7491Q1.15422 30.2175 0.990329 29.6773Q0.826436 29.137 0.689251 28.5893Q0.552066 28.0416 0.441919 27.4879Q0.331772 26.9341 0.248929 26.3757Q0.166086 25.8172 0.110746 25.2553Q0.0554066 24.6934 0.0277033 24.1295Q0 23.5656 0 23.001L0 22.999Q0 22.4344 0.0277033 21.8705Q0.0554066 21.3066 0.110746 20.7447Q0.166086 20.1828 0.248929 19.6243Q0.331772 19.0659 0.441919 18.5121Q0.552066 17.9584 0.689251 17.4107Q0.826436 16.863 0.990329 16.3227Q1.15422 15.7825 1.34443 15.2509Q1.53463 14.7193 1.75069 14.1977Q1.96676 13.676 2.20815 13.1657Q2.44954 12.6553 2.71569 12.1573Q2.98184 11.6594 3.2721 11.1751Q3.56236 10.6909 3.87603 10.2214Q4.1897 9.752 4.52603 9.29851Q4.86236 8.84503 5.22053 8.40859Q5.57871 7.97215 5.95787 7.55381Q6.33702 7.13548 6.73625 6.73625Q7.13548 6.33702 7.55381 5.95787Q7.97215 5.57871 8.40859 5.22053Q8.84503 4.86236 9.29851 4.52603Q9.752 4.1897 10.2214 3.87603Q10.6909 3.56236 11.1751 3.2721Q11.6594 2.98184 12.1573 2.71569Q12.6553 2.44954 13.1657 2.20815Q13.676 1.96676 14.1977 1.75069Q14.7193 1.53463 15.2509 1.34443Q15.7825 1.15422 16.3227 0.990329Q16.863 0.826436 17.4107 0.689251Q17.9584 0.552066 18.5121 0.441919Q19.0659 0.331772 19.6243 0.248929Q20.1828 0.166086 20.7447 0.110746Q21.3066 0.0554066 21.8705 0.0277033Q22.4344 0 22.999 0L22.999 0Z" transform="scale(0.99999994 1)" id="Rectangle" fill="#000000" fill-rule="evenodd" stroke="none" />
    <path d="M22.999 0L355.001 0Q355.566 0 356.13 0.0277033Q356.693 0.0554066 357.255 0.110746Q357.817 0.166086 358.376 0.248929Q358.934 0.331772 359.488 0.441919Q360.042 0.552066 360.589 0.689251Q361.137 0.826436 361.677 0.990329Q362.218 1.15422 362.749 1.34443Q363.281 1.53463 363.802 1.75069Q364.324 1.96676 364.834 2.20815Q365.345 2.44954 365.843 2.71569Q366.341 2.98184 366.825 3.2721Q367.309 3.56236 367.779 3.87603Q368.248 4.1897 368.701 4.52603Q369.155 4.86236 369.591 5.22053Q370.028 5.57871 370.446 5.95787Q370.865 6.33702 371.264 6.73625Q371.663 7.13548 372.042 7.55381Q372.421 7.97215 372.779 8.40859Q373.138 8.84503 373.474 9.29851Q373.81 9.752 374.124 10.2214Q374.438 10.6909 374.728 11.1751Q375.018 11.6594 375.284 12.1573Q375.55 12.6553 375.792 13.1657Q376.033 13.676 376.249 14.1977Q376.465 14.7193 376.656 15.2509Q376.846 15.7825 377.01 16.3227Q377.174 16.863 377.311 17.4107Q377.448 17.9584 377.558 18.5121Q377.668 19.0659 377.751 19.6243Q377.834 20.1828 377.889 20.7447Q377.945 21.3066 377.972 21.8705Q378 22.4344 378 22.999L378 23.001Q378 23.5656 377.972 24.1295Q377.945 24.6934 377.889 25.2553Q377.834 25.8172 377.751 26.3757Q377.668 26.9341 377.558 27.4879Q377.448 28.0416 377.311 28.5893Q377.174 29.137 377.01 29.6773Q376.846 30.2175 376.656 30.7491Q376.465 31.2807 376.249 31.8023Q376.033 32.3239 375.792 32.8343Q375.55 33.3447 375.284 33.8427Q375.018 34.3406 374.728 34.8248Q374.438 35.3091 374.124 35.7786Q373.81 36.248 373.474 36.7015Q373.138 37.155 372.78 37.5914Q372.421 38.0278 372.042 38.4462Q371.663 38.8645 371.264 39.2637Q370.865 39.663 370.446 40.0421Q370.028 40.4213 369.591 40.7795Q369.155 41.1376 368.701 41.474Q368.248 41.8103 367.779 42.124Q367.309 42.4376 366.825 42.7279Q366.341 43.0182 365.843 43.2843Q365.345 43.5504 364.834 43.7918Q364.324 44.0332 363.802 44.2493Q363.281 44.4654 362.749 44.6556Q362.218 44.8458 361.677 45.0097Q361.137 45.1736 360.589 45.3107Q360.042 45.4479 359.488 45.5581Q358.934 45.6682 358.376 45.7511Q357.817 45.8339 357.255 45.8893Q356.693 45.9446 356.13 45.9723Q355.566 46 355.001 46L22.999 46Q22.4344 46 21.8705 45.9723Q21.3066 45.9446 20.7447 45.8893Q20.1828 45.8339 19.6243 45.7511Q19.0659 45.6682 18.5121 45.5581Q17.9584 45.4479 17.4107 45.3107Q16.863 45.1736 16.3227 45.0097Q15.7825 44.8458 15.2509 44.6556Q14.7193 44.4654 14.1977 44.2493Q13.676 44.0332 13.1657 43.7918Q12.6553 43.5504 12.1573 43.2843Q11.6594 43.0182 11.1751 42.7279Q10.6909 42.4376 10.2214 42.124Q9.752 41.8103 9.29851 41.474Q8.84503 41.1376 8.40859 40.7795Q7.97215 40.4213 7.55381 40.0421Q7.13548 39.663 6.73625 39.2637Q6.33702 38.8645 5.95787 38.4462Q5.57871 38.0278 5.22053 37.5914Q4.86236 37.155 4.52603 36.7015Q4.1897 36.248 3.87603 35.7786Q3.56236 35.3091 3.2721 34.8248Q2.98184 34.3406 2.71569 33.8427Q2.44954 33.3447 2.20815 32.8343Q1.96676 32.3239 1.75069 31.8023Q1.53463 31.2807 1.34443 30.7491Q1.15422 30.2175 0.990329 29.6773Q0.826436 29.137 0.689251 28.5893Q0.552066 28.0416 0.441919 27.4879Q0.331772 26.9341 0.248929 26.3757Q0.166086 25.8172 0.110746 25.2553Q0.0554066 24.6934 0.0277033 24.1295Q0 23.5656 0 23.001L0 22.999Q0 22.4344 0.0277033 21.8705Q0.0554066 21.3066 0.110746 20.7447Q0.166086 20.1828 0.248929 19.6243Q0.331772 19.0659 0.441919 18.5121Q0.552066 17.9584 0.689251 17.4107Q0.826436 16.863 0.990329 16.3227Q1.15422 15.7825 1.34443 15.2509Q1.53463 14.7193 1.75069 14.1977Q1.96676 13.676 2.20815 13.1657Q2.44954 12.6553 2.71569 12.1573Q2.98184 11.6594 3.2721 11.1751Q3.56236 10.6909 3.87603 10.2214Q4.1897 9.752 4.52603 9.29851Q4.86236 8.84503 5.22053 8.40859Q5.57871 7.97215 5.95787 7.55381Q6.33702 7.13548 6.73625 6.73625Q7.13548 6.33702 7.55381 5.95787Q7.97215 5.57871 8.40859 5.22053Q8.84503 4.86236 9.29851 4.52603Q9.752 4.1897 10.2214 3.87603Q10.6909 3.56236 11.1751 3.2721Q11.6594 2.98184 12.1573 2.71569Q12.6553 2.44954 13.1657 2.20815Q13.676 1.96676 14.1977 1.75069Q14.7193 1.53463 15.2509 1.34443Q15.7825 1.15422 16.3227 0.990329Q16.863 0.826436 17.4107 0.689251Q17.9584 0.552066 18.5121 0.441919Q19.0659 0.331772 19.6243 0.248929Q20.1828 0.166086 20.7447 0.110746Q21.3066 0.0554066 21.8705 0.0277033Q22.4344 0 22.999 0L22.999 0Z" transform="matrix(0.99999994 0 0 1 0 119)" id="Rectangle-4" fill="#000000" fill-rule="evenodd" stroke="none" />
    <path d="M22.999 0L355.001 0Q355.566 0 356.13 0.0277033Q356.693 0.0554066 357.255 0.110746Q357.817 0.166086 358.376 0.248929Q358.934 0.331772 359.488 0.441919Q360.042 0.552066 360.589 0.689251Q361.137 0.826436 361.677 0.990329Q362.218 1.15422 362.749 1.34443Q363.281 1.53463 363.802 1.75069Q364.324 1.96676 364.834 2.20815Q365.345 2.44954 365.843 2.71569Q366.341 2.98184 366.825 3.2721Q367.309 3.56236 367.779 3.87603Q368.248 4.1897 368.701 4.52603Q369.155 4.86236 369.591 5.22053Q370.028 5.57871 370.446 5.95787Q370.865 6.33702 371.264 6.73625Q371.663 7.13548 372.042 7.55381Q372.421 7.97215 372.779 8.40859Q373.138 8.84503 373.474 9.29851Q373.81 9.752 374.124 10.2214Q374.438 10.6909 374.728 11.1751Q375.018 11.6594 375.284 12.1573Q375.55 12.6553 375.792 13.1657Q376.033 13.676 376.249 14.1977Q376.465 14.7193 376.656 15.2509Q376.846 15.7825 377.01 16.3227Q377.174 16.863 377.311 17.4107Q377.448 17.9584 377.558 18.5121Q377.668 19.0659 377.751 19.6243Q377.834 20.1828 377.889 20.7447Q377.945 21.3066 377.972 21.8705Q378 22.4344 378 22.999L378 23.001Q378 23.5656 377.972 24.1295Q377.945 24.6934 377.889 25.2553Q377.834 25.8172 377.751 26.3757Q377.668 26.9341 377.558 27.4879Q377.448 28.0416 377.311 28.5893Q377.174 29.137 377.01 29.6773Q376.846 30.2175 376.656 30.7491Q376.465 31.2807 376.249 31.8023Q376.033 32.3239 375.792 32.8343Q375.55 33.3447 375.284 33.8427Q375.018 34.3406 374.728 34.8248Q374.438 35.3091 374.124 35.7786Q373.81 36.248 373.474 36.7015Q373.138 37.155 372.78 37.5914Q372.421 38.0278 372.042 38.4462Q371.663 38.8645 371.264 39.2637Q370.865 39.663 370.446 40.0421Q370.028 40.4213 369.591 40.7795Q369.155 41.1376 368.701 41.474Q368.248 41.8103 367.779 42.124Q367.309 42.4376 366.825 42.7279Q366.341 43.0182 365.843 43.2843Q365.345 43.5504 364.834 43.7918Q364.324 44.0332 363.802 44.2493Q363.281 44.4654 362.749 44.6556Q362.218 44.8458 361.677 45.0097Q361.137 45.1736 360.589 45.3107Q360.042 45.4479 359.488 45.5581Q358.934 45.6682 358.376 45.7511Q357.817 45.8339 357.255 45.8893Q356.693 45.9446 356.13 45.9723Q355.566 46 355.001 46L22.999 46Q22.4344 46 21.8705 45.9723Q21.3066 45.9446 20.7447 45.8893Q20.1828 45.8339 19.6243 45.7511Q19.0659 45.6682 18.5121 45.5581Q17.9584 45.4479 17.4107 45.3107Q16.863 45.1736 16.3227 45.0097Q15.7825 44.8458 15.2509 44.6556Q14.7193 44.4654 14.1977 44.2493Q13.676 44.0332 13.1657 43.7918Q12.6553 43.5504 12.1573 43.2843Q11.6594 43.0182 11.1751 42.7279Q10.6909 42.4376 10.2214 42.124Q9.752 41.8103 9.29851 41.474Q8.84503 41.1376 8.40859 40.7795Q7.97215 40.4213 7.55381 40.0421Q7.13548 39.663 6.73625 39.2637Q6.33702 38.8645 5.95787 38.4462Q5.57871 38.0278 5.22053 37.5914Q4.86236 37.155 4.52603 36.7015Q4.1897 36.248 3.87603 35.7786Q3.56236 35.3091 3.2721 34.8248Q2.98184 34.3406 2.71569 33.8427Q2.44954 33.3447 2.20815 32.8343Q1.96676 32.3239 1.75069 31.8023Q1.53463 31.2807 1.34443 30.7491Q1.15422 30.2175 0.990329 29.6773Q0.826436 29.137 0.689251 28.5893Q0.552066 28.0416 0.441919 27.4879Q0.331772 26.9341 0.248929 26.3757Q0.166086 25.8172 0.110746 25.2553Q0.0554066 24.6934 0.0277033 24.1295Q0 23.5656 0 23.001L0 22.999Q0 22.4344 0.0277033 21.8705Q0.0554066 21.3066 0.110746 20.7447Q0.166086 20.1828 0.248929 19.6243Q0.331772 19.0659 0.441919 18.5121Q0.552066 17.9584 0.689251 17.4107Q0.826436 16.863 0.990329 16.3227Q1.15422 15.7825 1.34443 15.2509Q1.53463 14.7193 1.75069 14.1977Q1.96676 13.676 2.20815 13.1657Q2.44954 12.6553 2.71569 12.1573Q2.98184 11.6594 3.2721 11.1751Q3.56236 10.6909 3.87603 10.2214Q4.1897 9.752 4.52603 9.29851Q4.86236 8.84503 5.22053 8.40859Q5.57871 7.97215 5.95787 7.55381Q6.33702 7.13548 6.73625 6.73625Q7.13548 6.33702 7.55381 5.95787Q7.97215 5.57871 8.40859 5.22053Q8.84503 4.86236 9.29851 4.52603Q9.752 4.1897 10.2214 3.87603Q10.6909 3.56236 11.1751 3.2721Q11.6594 2.98184 12.1573 2.71569Q12.6553 2.44954 13.1657 2.20815Q13.676 1.96676 14.1977 1.75069Q14.7193 1.53463 15.2509 1.34443Q15.7825 1.15422 16.3227 0.990329Q16.863 0.826436 17.4107 0.689251Q17.9584 0.552066 18.5121 0.441919Q19.0659 0.331772 19.6243 0.248929Q20.1828 0.166086 20.7447 0.110746Q21.3066 0.0554066 21.8705 0.0277033Q22.4344 0 22.999 0L22.999 0Z" transform="matrix(0.99999994 0 0 1 0 238)" id="Rectangle-5" fill="#000000" fill-rule="evenodd" stroke="none" />
  </g>
</svg>