<?xml version="1.0" encoding="utf-8"?>
<svg width="172px" height="48px" viewBox="0 0 172 48" version="1.1" xmlns:xlink="http://www.w3.org/1999/xlink" xmlns="http://www.w3.org/2000/svg">
  <defs>
    <path d="M0 0L48 0L48 48L0 48L0 0Z" id="path_1" />
    <clipPath id="mask_1">
      <use xlink:href="#path_1" />
    </clipPath>
  </defs>
  <g id="Group">
    <g id="Play-Button-icon">
      <path d="M0 0L48 0L48 48L0 48L0 0Z" id="Background" fill="none" fill-rule="evenodd" stroke="none" />
      <g clip-path="url(#mask_1)">
        <path d="M39.2 24.9C38.8 27 37.1 28.6 35 28.9C31.7 29.4 26.2 30 20 30C13.9 30 8.4 29.4 5 28.9C2.9 28.6 1.2 27 0.8 24.9C0.4 22.6 0 19.2 0 15C0 10.8 0.4 7.4 0.8 5.1C1.2 3 2.9 1.4 5 1.1C8.3 0.6 13.8 0 20 0C26.2 0 31.6 0.6 35 1.1C37.1 1.4 38.8 3 39.2 5.1C39.6 7.4 40.1 10.8 40.1 15C40 19.2 39.6 22.6 39.2 24.9L39.2 24.9Z" transform="translate(4 9)" id="Shape" fill="#FF3D00" fill-rule="evenodd" stroke="none" />
        <path d="M0 14L0 0L12 7L0 14Z" transform="translate(20 17)" id="Shape" fill="#FFFFFF" fill-rule="evenodd" stroke="none" />
      </g>
    </g>
    <g id="YouTube" fill="#FFFFFF" transform="translate(48 11)">
      <path d="M0.494318 5.77273L4.62784 5.77273L8.60795 13.2898L8.77841 13.2898L12.7585 5.77273L16.892 5.77273L10.5256 17.0568L10.5256 23.2273L6.8608 23.2273L6.8608 17.0568L0.494318 5.77273ZM47.8892 8.81534L47.8892 5.77273L62.2244 5.77273L62.2244 8.81534L56.8807 8.81534L56.8807 23.2273L53.233 23.2273L53.233 8.81534L47.8892 8.81534ZM79.517 23.2273L79.517 5.77273L83.1477 5.77273L83.1477 12.3352L83.2585 12.3352Q83.5057 11.7983 83.9574 11.2528Q84.4091 10.7074 85.1506 10.3366Q85.892 9.96591 86.983 9.96591Q88.4233 9.96591 89.625 10.7116Q90.8267 11.4574 91.5554 12.9531Q92.2841 14.4489 92.2841 16.6989Q92.2841 18.8892 91.5767 20.3935Q90.8693 21.8977 89.6676 22.669Q88.4659 23.4403 86.9744 23.4403Q85.9176 23.4403 85.1804 23.0909Q84.4432 22.7415 83.9787 22.2088Q83.5142 21.6761 83.2585 21.1307L83.0966 21.1307L83.0966 23.2273L79.517 23.2273ZM24.75 23.483Q22.7642 23.483 21.3196 22.6349Q19.875 21.7869 19.0909 20.2656Q18.3068 18.7443 18.3068 16.733Q18.3068 14.7045 19.0909 13.1832Q19.875 11.6619 21.3196 10.8139Q22.7642 9.96591 24.75 9.96591Q26.7358 9.96591 28.1804 10.8139Q29.625 11.6619 30.4091 13.1832Q31.1932 14.7045 31.1932 16.733Q31.1932 18.7443 30.4091 20.2656Q29.625 21.7869 28.1804 22.6349Q26.7358 23.483 24.75 23.483ZM97.1932 22.6605Q98.6506 23.483 100.662 23.483Q103.091 23.483 104.651 22.392Q106.21 21.3011 106.594 19.4773L103.236 19.2557Q102.963 20.0057 102.298 20.3892Q101.634 20.7727 100.722 20.7727Q99.358 20.7727 98.5568 19.929Q97.7557 19.0852 97.7557 17.6193L97.7557 17.6108L106.67 17.6108L106.67 16.6136Q106.67 14.3892 105.852 12.9105Q105.034 11.4318 103.641 10.6989Q102.247 9.96591 100.517 9.96591Q98.5909 9.96591 97.1634 10.8182Q95.7358 11.6705 94.9517 13.196Q94.1676 14.7216 94.1676 16.7415Q94.1676 18.8125 94.9517 20.3253Q95.7358 21.8381 97.1932 22.6605ZM41.9574 10.1364L41.9574 17.6534Q41.9659 18.9659 41.2031 19.6477Q40.4403 20.3295 39.4602 20.3295Q38.429 20.3295 37.8153 19.6563Q37.2017 18.983 37.1932 17.8239L37.1932 10.1364L33.5625 10.1364L33.5625 18.4716Q33.571 20.7642 34.794 22.081Q36.017 23.3977 37.9943 23.3977Q39.4688 23.3977 40.4957 22.6989Q41.5227 22 41.9659 20.8494L42.1023 20.8494L42.1023 23.2273L45.5881 23.2273L45.5881 10.1364L41.9574 10.1364ZM72.9205 10.1364L72.9205 17.6534Q72.929 18.9659 72.1662 19.6477Q71.4034 20.3295 70.4233 20.3295Q69.392 20.3295 68.7784 19.6563Q68.1648 18.983 68.1563 17.8239L68.1563 10.1364L64.5256 10.1364L64.5256 18.4716Q64.5341 20.7642 65.7571 22.081Q66.9801 23.3977 68.9574 23.3977Q70.4318 23.3977 71.4588 22.6989Q72.4858 22 72.929 20.8494L73.0653 20.8494L73.0653 23.2273L76.5511 23.2273L76.5511 10.1364L72.9205 10.1364ZM103.253 15.3608L97.7557 15.3608Q97.8153 14.2443 98.5909 13.4602Q99.3665 12.6761 100.577 12.6761Q101.761 12.6761 102.503 13.4347Q103.244 14.1932 103.253 15.3608ZM24.767 20.6705Q26.1136 20.6705 26.8082 19.5455Q27.5028 18.4205 27.5028 16.7074Q27.5028 14.9943 26.8082 13.8651Q26.1136 12.7358 24.767 12.7358Q23.3949 12.7358 22.696 13.8651Q21.9972 14.9943 21.9972 16.7074Q21.9972 18.4205 22.696 19.5455Q23.3949 20.6705 24.767 20.6705ZM83.071 16.6818Q83.071 18.429 83.7912 19.4901Q84.5114 20.5511 85.8239 20.5511Q87.1619 20.5511 87.8693 19.473Q88.5767 18.3949 88.5767 16.6818Q88.5767 14.9773 87.8736 13.9162Q87.1705 12.8551 85.8239 12.8551Q84.5028 12.8551 83.7869 13.8906Q83.071 14.9261 83.071 16.6818Z" />
    </g>
    <g id="PK" fill="#A8A8A8" transform="translate(155 6)">
      <path d="M0.758523 3.13636L0.758523 11.8636L2.60369 11.8636L2.60369 9.03409L4.15483 9.03409Q5.16051 9.03409 5.87003 8.66122Q6.57955 8.28835 6.95455 7.62571Q7.32955 6.96307 7.32955 6.09375Q7.32955 5.22443 6.96094 4.55753Q6.59233 3.89062 5.89347 3.51349Q5.1946 3.13636 4.2017 3.13636L0.758523 3.13636ZM8.53125 3.13636L8.53125 11.8636L10.3764 11.8636L10.3764 9.38352L11.2841 8.27557L13.6747 11.8636L15.8821 11.8636L12.6051 7.04403L15.8438 3.13636L13.6321 3.13636L10.4915 6.98437L10.3764 6.98437L10.3764 3.13636L8.53125 3.13636ZM3.85653 7.5554L2.60369 7.5554L2.60369 4.64489L3.84801 4.64489Q4.64915 4.64489 5.03906 5.04332Q5.42898 5.44176 5.42898 6.09375Q5.42898 6.74148 5.03906 7.14844Q4.64915 7.5554 3.85653 7.5554Z" />
    </g>
  </g>
</svg>