<?xml version="1.0" encoding="utf-8"?>
<svg width="50px" height="50px" viewBox="0 0 50 50" version="1.1" xmlns:xlink="http://www.w3.org/1999/xlink" xmlns="http://www.w3.org/2000/svg">
  <defs>
    <path d="M0 0L50 0L50 50L0 50L0 0Z" id="path_1" />
    <clipPath id="mask_1">
      <use xlink:href="#path_1" />
    </clipPath>
  </defs>
  <g id="icons8_home_1">
    <path d="M0 0L50 0L50 50L0 50L0 0Z" id="Background" fill="none" fill-rule="evenodd" stroke="none" />
    <g clip-path="url(#mask_1)">
      <path d="M23.9635 0.000781059C23.7536 0.00801945 23.5514 0.0811362 23.3854 0.209766L0.385377 18.157C-0.0504093 18.4968 -0.128235 19.1255 0.211547 19.5613C0.55133 19.9971 1.18005 20.0749 1.61584 19.7352L3.00061 18.6551L3.00061 44.9461C3.00088 45.4987 3.44874 45.9463 4.001 45.9461L17.8326 45.9461C17.9406 45.9639 18.0508 45.9639 18.1588 45.9461L29.8326 45.9461C29.9406 45.9639 30.0508 45.9639 30.1588 45.9461L44.0006 45.9461C44.5529 45.946 45.0006 45.4984 45.0006 44.9461L45.0006 18.6551L46.3854 19.7352C46.8212 20.0749 47.4499 19.9971 47.7897 19.5613C48.1295 19.1255 48.0516 18.4968 47.6158 18.157L40.0006 12.2156L40.0006 4.94609L34.0006 4.94609L34.0006 7.53203L24.6158 0.209765C24.4298 0.0654856 24.1988 -0.00851965 23.9635 0.000781178L23.9635 0.000781059ZM24.0006 2.26836L43.0006 17.0945L43.0006 43.9461L31.0006 43.9461L31.0006 24.9461L17.0006 24.9461L17.0006 43.9461L5.00061 43.9461L5.00061 17.0945L24.0006 2.26836L24.0006 2.26836ZM36.0006 6.94609L38.0006 6.94609L38.0006 10.6551L36.0006 9.09258L36.0006 6.94609L36.0006 6.94609ZM19.0006 26.9461L29.0006 26.9461L29.0006 43.9461L19.0006 43.9461L19.0006 26.9461L19.0006 26.9461Z" transform="translate(0.99938965 1.053894)" id="Shape" fill="#FFFFFF" fill-rule="evenodd" stroke="none" />
    </g>
  </g>
</svg>